<svg xmlns="http://www.w3.org/2000/svg" xmlns:xlink="http://www.w3.org/1999/xlink" width="500" zoomAndPan="magnify" viewBox="0 0 375 374.999991" height="500" preserveAspectRatio="xMidYMid meet" version="1.0"><path fill="#00b0b9" d="M 187.5 0 C 83.957031 0 0 83.957031 0 187.5 C 0 291.042969 83.957031 375 187.5 375 C 255.625 375 315.25 338.667969 348.042969 284.332031 C 365.167969 256.082031 375 222.917969 375 187.5 C 375 143.5 359.832031 103 334.375 71 C 300.082031 27.75 247 0 187.5 0 Z M 110.675781 221.875 C 110.675781 225.324219 107.878906 228.125 104.425781 228.125 L 72.65625 228.125 C 69.207031 228.125 66.40625 225.324219 66.40625 221.875 L 66.40625 153.125 C 66.40625 149.675781 69.207031 146.875 72.65625 146.875 L 104.425781 146.875 C 107.878906 146.875 110.675781 149.675781 110.675781 153.125 Z M 204.59375 265.292969 C 204.59375 267.5625 203.363281 269.648438 201.382812 270.75 C 200.4375 271.28125 199.390625 271.542969 198.34375 271.542969 C 197.199219 271.542969 196.058594 271.226562 195.046875 270.601562 L 125.089844 227.183594 C 123.253906 226.046875 122.136719 224.035156 122.136719 221.875 L 122.136719 153.125 C 122.136719 150.964844 123.253906 148.953125 125.089844 147.816406 L 195.046875 104.398438 C 196.980469 103.203125 199.402344 103.140625 201.382812 104.25 C 203.363281 105.351562 204.59375 107.4375 204.59375 109.707031 Z M 229.179688 218.335938 C 227.957031 219.554688 226.359375 220.167969 224.761719 220.167969 C 223.160156 220.167969 221.5625 219.554688 220.339844 218.335938 C 217.898438 215.894531 217.898438 211.9375 220.339844 209.496094 C 226.203125 203.636719 229.425781 195.824219 229.425781 187.5 C 229.425781 179.175781 226.203125 171.363281 220.339844 165.503906 C 217.898438 163.0625 217.898438 159.105469 220.339844 156.664062 C 222.78125 154.222656 226.738281 154.222656 229.179688 156.664062 C 237.398438 164.886719 241.925781 175.832031 241.925781 187.5 C 241.925781 199.167969 237.398438 210.113281 229.179688 218.335938 Z M 248.304688 243.707031 C 246.703125 243.707031 245.105469 243.097656 243.886719 241.878906 C 241.445312 239.441406 241.445312 235.480469 243.886719 233.039062 C 256.054688 220.859375 262.761719 204.691406 262.761719 187.5 C 262.761719 170.308594 256.054688 154.140625 243.886719 141.960938 C 241.445312 139.519531 241.445312 135.558594 243.886719 133.121094 C 246.328125 130.679688 250.28125 130.679688 252.722656 133.121094 C 267.257812 147.660156 275.261719 166.972656 275.261719 187.5 C 275.261719 208.03125 267.257812 227.339844 252.722656 241.878906 C 251.5 243.097656 249.902344 243.707031 248.304688 243.707031 Z M 276.261719 265.417969 C 275.039062 266.640625 273.441406 267.25 271.84375 267.25 C 270.242188 267.25 268.644531 266.640625 267.421875 265.417969 C 264.984375 262.976562 264.984375 259.019531 267.421875 256.578125 C 285.914062 238.09375 296.09375 213.5625 296.09375 187.5 C 296.09375 161.4375 285.914062 136.90625 267.421875 118.421875 C 264.984375 115.980469 264.984375 112.023438 267.421875 109.582031 C 269.863281 107.140625 273.820312 107.140625 276.261719 109.582031 C 297.109375 130.425781 308.59375 158.097656 308.59375 187.5 C 308.59375 216.902344 297.109375 244.574219 276.261719 265.417969 Z M 276.261719 265.417969 " fill-opacity="1" fill-rule="nonzero"/></svg>